<svg xmlns="http://www.w3.org/2000/svg" width="14.869" height="12.752" viewBox="0 0 14.869 12.752"><defs><style>.a{fill:#1C1C1C;}</style></defs><g transform="translate(0 -31.842)"><g transform="translate(0 31.842)"><path class="a" d="M13.975,37.174a1.063,1.063,0,0,0-.184-.014H3.3l.229-.106a2.128,2.128,0,0,0,.6-.426l2.942-2.942a1.1,1.1,0,0,0,.154-1.41,1.064,1.064,0,0,0-1.6-.138L.312,37.458a1.064,1.064,0,0,0,0,1.5h0l5.319,5.319a1.064,1.064,0,0,0,1.6-.106,1.1,1.1,0,0,0-.154-1.41L4.136,39.82a2.128,2.128,0,0,0-.532-.388l-.319-.144H13.732a1.1,1.1,0,0,0,1.122-.894A1.064,1.064,0,0,0,13.975,37.174Z" transform="translate(0 -31.842)"/></g></g></svg>
