<svg xmlns="http://www.w3.org/2000/svg" width="17.503" height="11.934" viewBox="0 0 17.503 11.934"><defs><style>.a{opacity:0.2;}</style></defs><g class="a" transform="translate(0 -74.667)"><g transform="translate(0 74.667)"><g transform="translate(0 0)"><path d="M173.054,170.667a2.387,2.387,0,1,0,2.387,2.387A2.389,2.389,0,0,0,173.054,170.667Z" transform="translate(-164.302 -167.087)"/><path d="M8.752,74.667A9.409,9.409,0,0,0,0,80.634a9.4,9.4,0,0,0,17.5,0A9.4,9.4,0,0,0,8.752,74.667Zm0,9.945a3.978,3.978,0,1,1,3.978-3.978A3.979,3.979,0,0,1,8.752,84.612Z" transform="translate(0 -74.667)"/></g></g></g></svg>