<svg xmlns="http://www.w3.org/2000/svg" width="19.401" height="19.401" viewBox="0 0 19.401 19.401"><path d="M9.7,0a9.7,9.7,0,1,0,9.7,9.7A9.695,9.695,0,0,0,9.7,0Zm0,17.885A8.185,8.185,0,1,1,17.885,9.7,8.18,8.18,0,0,1,9.7,17.885Z"/><g transform="translate(8.942 8.121)"><path d="M236.758,214.33a.758.758,0,0,0-.758.758v4.88a.758.758,0,1,0,1.516,0v-4.88A.758.758,0,0,0,236.758,214.33Z" transform="translate(-236 -214.33)"/></g><g transform="translate(8.677 5.147)"><circle cx="1.023" cy="1.023" r="1.023"/></g></svg>